<svg width="25" height="8" viewBox="0 0 25 8" fill="none" xmlns="http://www.w3.org/2000/svg">
<path fill-rule="evenodd" clip-rule="evenodd" d="M6.25026 7.91658H4.08667L2.46424 1.72691C2.38723 1.44219 2.22372 1.19047 1.98321 1.07184C1.38297 0.773704 0.721549 0.536434 0 0.416767V0.178465H3.48538C3.96641 0.178465 4.32719 0.536434 4.38732 0.952173L5.22912 5.41699L7.39166 0.178465H9.49513L6.25026 7.91658ZM10.6977 7.91658H8.65438L10.3369 0.178465H12.3803L10.6977 7.91658ZM15.0238 2.32216C15.084 1.90539 15.4447 1.66708 15.8657 1.66708C16.5271 1.60725 17.2476 1.72692 17.8489 2.02402L18.2096 0.357969C17.6083 0.119667 16.9469 0 16.3467 0C14.3635 0 12.9204 1.07184 12.9204 2.55943C12.9204 3.6911 13.9426 4.28531 14.6641 4.64328C15.4447 5.00022 15.7454 5.23852 15.6853 5.59546C15.6853 6.13087 15.084 6.36917 14.4837 6.36917C13.7622 6.36917 13.0406 6.1907 12.3803 5.89256L12.0195 7.55965C12.741 7.85675 13.5217 7.97642 14.2432 7.97642C16.4669 8.03522 17.8489 6.96441 17.8489 5.35716C17.8489 3.33314 15.0238 3.2145 15.0238 2.32216ZM25 7.91658L23.3776 0.178465H21.6349C21.2741 0.178465 20.9133 0.416767 20.7931 0.773704L17.7887 7.91658H19.8922L20.312 6.78593H22.8965L23.1371 7.91658H25ZM21.9355 2.26233L22.5358 5.17869H20.8532L21.9355 2.26233Z" fill="#172B85"/>
</svg>
