<svg width="6" height="5" viewBox="0 0 6 5" fill="none" xmlns="http://www.w3.org/2000/svg">
<path d="M5.48476 0.177118C5.40943 0.155174 5.33157 0.135227 5.25176 0.117279C5.17161 0.0997322 5.08939 0.0841725 5.00487 0.0706108C4.70883 0.022737 4.38455 0 4.03706 0H1.10423C1.032 0 0.963447 0.0163521 0.902011 0.0458756C0.766738 0.110894 0.66626 0.238956 0.641915 0.395726L0.0179142 4.34743L0 4.46271C0.0411101 4.20262 0.263312 4.01113 0.526968 4.01113H1.62477C3.78098 4.01113 5.46926 3.13551 5.96269 0.602367C5.97739 0.52737 5.98979 0.45437 6.00093 0.382967C5.87611 0.316743 5.74084 0.260097 5.59523 0.211821C5.5594 0.199855 5.52231 0.188292 5.48476 0.177118Z" fill="#222D65"/>
</svg>
