<svg width="29" height="8" viewBox="0 0 29 8" fill="none" xmlns="http://www.w3.org/2000/svg">
<path fill-rule="evenodd" clip-rule="evenodd" d="M3.27281 0L0 7.45563H3.91801L4.40373 6.26689H5.51397L5.99969 7.45563H10.3123V6.54835L10.6966 7.45563H12.9274L13.3117 6.52917V7.45563H22.2808L23.3714 6.29776L24.3926 7.45563L28.9993 7.46522L25.7162 3.74863L28.9993 0H24.464L23.4024 1.13647L22.4134 0H12.6562L11.8183 1.92436L10.9608 0H7.05098V0.876411L6.61604 0H3.27281ZM16.6663 1.05871H21.8168L23.3921 2.81036L25.0181 1.05871H26.5934L24.1999 3.74758L26.5934 6.40546H24.9467L23.3714 4.63346L21.737 6.40546H16.6663V1.05871ZM17.9382 3.14303V2.1664V2.16547H21.1519L22.5542 3.72734L21.0898 5.29774H17.9382V4.23155H20.748V3.14303H17.9382ZM4.03092 1.05871H5.94074L8.11159 6.11441V1.05871H10.2037L11.8805 4.68363L13.4258 1.05871H15.5074V6.40862H14.2408L14.2304 2.21646L12.3838 6.40862H11.2507L9.3937 2.21646V6.40862H6.78791L6.2939 5.20924H3.62494L3.13196 6.40756H1.7358L4.03092 1.05871ZM4.08066 4.10048L4.95998 1.96389L5.83827 4.10048H4.08066Z" fill="white"/>
</svg>
