<svg width="8" height="9" viewBox="0 0 8 9" fill="none" xmlns="http://www.w3.org/2000/svg">
<path d="M6.74082 0C6.72966 0.071564 6.71688 0.144728 6.7025 0.219894C6.20783 2.75915 4.51587 3.63635 2.35479 3.63635H1.25452C0.990266 3.63635 0.767564 3.82826 0.726362 4.08894L0.162988 7.66177L0.00347044 8.67446C-0.0233459 8.8456 0.108665 8.99994 0.281302 8.99994H2.23291C2.46401 8.99994 2.66025 8.83202 2.69662 8.60414L2.71584 8.50493L3.08332 6.17317L3.10692 6.0453C3.14283 5.81662 3.33952 5.6487 3.57062 5.6487H3.86249C5.75322 5.6487 7.23341 4.88104 7.66604 2.65959C7.84674 1.73161 7.75317 0.956768 7.27496 0.411809C7.13029 0.247482 6.95075 0.111144 6.74082 0Z" fill="#179BD7"/>
</svg>
