<svg width="9" height="11" viewBox="0 0 9 11" fill="none" xmlns="http://www.w3.org/2000/svg">
<path d="M2.37729 10.7776L2.57769 9.50489L2.13135 9.49453H0L1.48119 0.10268C1.48571 0.0743243 1.50071 0.0478879 1.52255 0.0291166C1.54439 0.0103453 1.5724 0 1.60152 0H5.1953C6.38842 0 7.21173 0.248273 7.64164 0.738301C7.84314 0.968189 7.97151 1.20841 8.03361 1.47277C8.09868 1.75017 8.09989 2.08158 8.03625 2.4858L8.03162 2.5153V2.77429L8.23323 2.88847C8.40297 2.9785 8.53774 3.08157 8.64119 3.19958C8.81369 3.39613 8.92519 3.64593 8.97228 3.94209C9.02092 4.24669 9.00482 4.60914 8.92519 5.01948C8.83321 5.49151 8.68454 5.90261 8.48381 6.23901C8.29908 6.54897 8.06383 6.806 7.78457 7.00529C7.51789 7.19455 7.20103 7.33825 6.84281 7.43023C6.49562 7.52056 6.0999 7.56622 5.6658 7.56622H5.3861C5.18615 7.56622 4.99182 7.63824 4.8394 7.76739C4.68654 7.89919 4.58529 8.07918 4.5543 8.27616L4.53323 8.39075L4.17921 10.6339L4.1631 10.7163C4.15891 10.7425 4.15163 10.7555 4.14094 10.7643C4.13134 10.7722 4.11755 10.7776 4.1041 10.7776H2.37729Z" fill="#253B80"/>
</svg>
