<svg width="9" height="10" viewBox="0 0 9 10" fill="none" xmlns="http://www.w3.org/2000/svg">
<path d="M3.58323 2.86953C3.60598 2.72305 3.69996 2.60341 3.82624 2.54303C3.88407 2.51545 3.9478 2.50017 4.01518 2.50017H6.75546C7.08012 2.50017 7.3831 2.52141 7.65959 2.56614C7.73866 2.57881 7.81548 2.59335 7.89037 2.60974C7.96493 2.62652 8.03757 2.64516 8.10806 2.66565C8.14304 2.67609 8.17769 2.68689 8.21159 2.69771C8.34764 2.7428 8.47402 2.7961 8.59065 2.8576C8.72787 1.98284 8.58958 1.38724 8.11664 0.84792C7.59522 0.25419 6.65407 0 5.44986 0H1.95372C1.70771 0 1.49796 0.178894 1.45987 0.422281L0.00373642 9.65257C-0.0250172 9.83518 0.115854 9.99997 0.299963 9.99997H2.45841L3.00033 6.56164L3.58323 2.86953Z" fill="#253B80"/>
</svg>
