<svg width="9" height="5" viewBox="0 0 9 5" fill="none" xmlns="http://www.w3.org/2000/svg">
<path fill-rule="evenodd" clip-rule="evenodd" d="M7.36779 4.21653L8.01308 0.110864C8.02297 0.0471333 8.07819 0.00021279 8.14235 0H8.86881C8.94903 0 9.01063 0.0719226 8.99797 0.151506L8.36162 4.18323C8.34503 4.28962 8.25353 4.36783 8.14575 4.36783H7.49696C7.41673 4.36783 7.35513 4.29611 7.36779 4.21653ZM2.42586 0.000213079H0.853239C0.745886 0.000213079 0.654385 0.078413 0.637575 0.184595L0.00165506 4.21653C-0.0110059 4.29611 0.0505967 4.36783 0.130925 4.36783H0.937823C1.01283 4.36783 1.07699 4.31314 1.08869 4.23866L1.26914 3.09577C1.28573 2.98927 1.37745 2.91117 1.4848 2.91117H1.9823C3.01827 2.91117 3.61589 2.40995 3.77218 1.41675C3.84272 0.982237 3.77495 0.640815 3.57152 0.40164C3.3482 0.139164 2.95209 0.000213079 2.42586 0.000213079ZM2.60726 1.47282C2.52151 2.03703 2.0904 2.03703 1.67333 2.03703H1.43628L1.603 0.983301C1.6129 0.919676 1.66758 0.872756 1.73217 0.872756H1.8409C2.12466 0.872756 2.39277 0.872756 2.53108 1.03458C2.61365 1.13119 2.63876 1.27461 2.60726 1.47282ZM7.12553 1.45474H6.37311C6.30842 1.45474 6.25352 1.50166 6.24384 1.56539L6.21054 1.77594L6.15766 1.69966C5.99466 1.46303 5.63143 1.38398 5.26862 1.38398C4.43651 1.38398 3.72611 2.01416 3.58769 2.89819C3.51598 3.33909 3.6178 3.76074 3.86794 4.05481C4.09785 4.32516 4.42576 4.43783 4.81634 4.43783C5.48673 4.43783 5.85848 4.00672 5.85848 4.00672L5.82496 4.216C5.8123 4.29601 5.8739 4.36772 5.95466 4.36772H6.6326C6.73996 4.36772 6.83145 4.28952 6.84827 4.18312L7.25544 1.60603C7.26789 1.52677 7.20629 1.45474 7.12553 1.45474ZM6.07605 2.92022C6.00381 3.35037 5.66196 3.63913 5.22649 3.63913C5.00827 3.63913 4.83315 3.56901 4.7209 3.43613C4.60961 3.3042 4.5678 3.1163 4.6028 2.90713C4.671 2.4806 5.01774 2.18248 5.44651 2.18248C5.66037 2.18248 5.83411 2.25344 5.9487 2.3875C6.06382 2.52294 6.10935 2.7119 6.07605 2.92022Z" fill="#179BD7"/>
</svg>
