<svg width="12" height="6" viewBox="0 0 12 6" fill="none" xmlns="http://www.w3.org/2000/svg">
<path fill-rule="evenodd" clip-rule="evenodd" d="M2.58378 0H0.909049C0.794445 0 0.696976 0.0832927 0.679105 0.19639L0.00175684 4.4909C-0.011706 4.57567 0.0539203 4.65205 0.139876 4.65205H0.939409C1.05401 4.65205 1.15148 4.56876 1.16935 4.45544L1.35204 3.29715C1.36966 3.18372 1.46737 3.10054 1.58174 3.10054H2.1119C3.21511 3.10054 3.85176 2.56667 4.01812 1.50879C4.09303 1.04598 4.02129 0.682321 3.8045 0.42757C3.56652 0.148 3.14428 0 2.58378 0ZM2.777 1.56851C2.68543 2.16947 2.22627 2.16947 1.7823 2.16947H1.52958L1.70687 1.04711C1.7174 0.979343 1.77617 0.929367 1.84474 0.929367H1.96057C2.263 0.929367 2.54831 0.929367 2.69575 1.10173C2.78357 1.20463 2.81054 1.35739 2.777 1.56851ZM7.58997 1.54925H6.78798C6.71964 1.54925 6.6606 1.59922 6.65006 1.6671L6.61459 1.89137L6.5585 1.81012C6.38489 1.55809 5.99777 1.47389 5.61134 1.47389C4.72503 1.47389 3.96814 2.1451 3.82071 3.08671C3.7441 3.55632 3.85301 4.00543 4.11943 4.31865C4.36387 4.60661 4.71359 4.72662 5.1296 4.72662C5.84365 4.72662 6.23972 4.26743 6.23972 4.26743L6.20391 4.49034C6.19042 4.57556 6.25604 4.65194 6.34148 4.65194H7.06392C7.17883 4.65194 7.27572 4.56864 7.29385 4.45532L7.72732 1.71039C7.74103 1.62597 7.67564 1.54925 7.58997 1.54925ZM6.47203 3.11017C6.39463 3.56834 6.03097 3.8759 5.56725 3.8759C5.33437 3.8759 5.14818 3.80122 5.02874 3.65968C4.9102 3.51915 4.8651 3.31903 4.90284 3.09623C4.97514 2.64192 5.34491 2.32438 5.80161 2.32438C6.02928 2.32438 6.21445 2.39997 6.33638 2.54276C6.45855 2.68702 6.50705 2.88828 6.47203 3.11017ZM11.0553 1.54914H11.8613C11.9741 1.54914 12.04 1.67572 11.9758 1.7683L9.29538 5.6374C9.25197 5.70007 9.18047 5.73735 9.10409 5.73735H8.29915C8.18582 5.73735 8.11964 5.60975 8.18526 5.51694L9.01989 4.33882L8.13222 1.73374C8.10151 1.64319 8.16837 1.54914 8.2647 1.54914H9.05661C9.1595 1.54914 9.25028 1.61668 9.27997 1.71515L9.75105 3.28854L10.8626 1.65124C10.9062 1.58732 10.9785 1.54914 11.0553 1.54914Z" fill="#253B80"/>
</svg>
